# xmcd
#
# Track frame offsets:
#	183
#	15593
#	31243
#	46405
#	61630
#	77983
#	95245
#	115150
#	128710
#	145753
#	159278
#	178668
#
# Disc length: 2562 seconds
#
# Revision: 3
# Processed by: cddbd v1.5.2PL0 Copyright (c) Steve Scherf et al.
# Submitted via: audiograbber 1.83.01
#
DISCID=940a000c
DTITLE=Various Artist - New Country - May 1994
DYEAR=1994
DGENRE=Country
TTITLE0=Bob Woodruff - Bayou Girl
TTITLE1=Reba McEntire - Why Haven't I Heard From You
TTITLE2=Boy Howdy - They Don't Make Them Like That Anymore
TTITLE3=Linda Davis - Company Time
TTITLE4=Ian Tyson - Alcohol In The Bloodstream
TTITLE5=Duane Jarvis - She's Like A Drink
TTITLE6=Charlie Floyd - Southbound Train
TTITLE7=David Lee Murphy - Just Once
TTITLE8=Brian Barrett - The Cross Road
TTITLE9=Tim McGraw - Indian Outlaw
TTITLE10=Sarah Elizabeth Campbell - Running With You
TTITLE11=John McEuen - Red Wing
EXTD=
EXTT0=
EXTT1=
EXTT2=
EXTT3=
EXTT4=
EXTT5=
EXTT6=
EXTT7=
EXTT8=
EXTT9=
EXTT10=
EXTT11=
PLAYORDER=
